<svg width="33" height="36" viewBox="0 0 33 36" fill="none" xmlns="http://www.w3.org/2000/svg">
<path d="M25.9167 11.6017C25.9167 9.05517 24.8982 6.61294 23.0854 4.81227C21.2725 3.0116 18.8138 2 16.25 2C13.6862 2 11.2275 3.0116 9.41464 4.81227C7.60178 6.61294 6.58333 9.05517 6.58333 11.6017C6.58333 22.8037 1.75 26.0043 1.75 26.0043H30.75C30.75 26.0043 25.9167 22.8037 25.9167 11.6017Z" stroke="white" stroke-width="2.67" stroke-linecap="round" stroke-linejoin="round"/>
<path d="M19.0373 32.4053C18.7541 32.8903 18.3475 33.2929 17.8584 33.5727C17.3692 33.8526 16.8146 33.9999 16.2501 33.9999C15.6856 33.9999 15.131 33.8526 14.6419 33.5727C14.1527 33.2929 13.7461 32.8903 13.4629 32.4053" stroke="white" stroke-width="2.67" stroke-linecap="round" stroke-linejoin="round"/>
</svg>
