<svg width="10" height="11" viewBox="0 0 10 11" fill="none" xmlns="http://www.w3.org/2000/svg">
<path d="M1.28033 1.20473C0.987437 0.912226 0.512563 0.912226 0.21967 1.20473C-0.0732233 1.49723 -0.0732233 1.97148 0.21967 2.26398L3.68934 5.72904L0.21967 9.19409C-0.0732231 9.4866 -0.0732231 9.96084 0.21967 10.2533C0.512563 10.5458 0.987437 10.5458 1.28033 10.2533L4.75 6.78829L8.21967 10.2533C8.51256 10.5458 8.98744 10.5458 9.28033 10.2533C9.57322 9.96084 9.57322 9.4866 9.28033 9.19409L5.81066 5.72904L9.28033 2.26398C9.57322 1.97148 9.57322 1.49723 9.28033 1.20473C8.98744 0.912226 8.51256 0.912226 8.21967 1.20473L4.75 4.66979L1.28033 1.20473Z" fill="black"/>
</svg>
