<svg width="27" height="32" viewBox="0 0 27 32" fill="none" xmlns="http://www.w3.org/2000/svg">
<path d="M2.93326 2.33561C2.93326 2.68093 2.93326 2.99954 2.93326 3.31816C2.95922 4.71601 4.05074 5.68014 5.60441 5.71882C7.35126 5.76118 8.3358 4.5917 8.43031 3.39367C8.50509 2.46913 9.57999 1.96082 10.4513 2.48939C10.6767 2.62752 10.8169 2.91022 10.9249 3.15241C11.0173 3.3596 10.9758 3.61283 11.0475 3.82831C11.3642 4.7906 11.9967 5.50518 13.1703 5.67001C14.2576 5.82564 15.2806 5.62489 15.9214 4.7731C16.2392 4.35043 16.3846 3.797 16.4874 3.28409C16.6214 2.61371 16.9911 2.29509 17.8292 2.31167C18.5562 2.32548 18.9716 2.68001 19.009 3.33566C19.0942 4.7289 20.2833 5.72434 21.8474 5.70961C23.3699 5.69488 24.5331 4.67181 24.5891 3.28961C24.6016 2.971 24.5891 2.6533 24.5891 2.33193C25.8749 2.39639 26.6881 3.09071 26.7234 4.15982C26.7462 4.84309 26.6829 5.5282 26.6839 6.21239C26.6839 7.06602 26.7275 7.92057 26.7286 8.77512C26.7327 13.477 26.7327 18.1792 26.7286 22.8816C26.7286 25.2013 26.6964 27.5218 26.7493 29.8405C26.7815 31.2421 25.6537 32.0073 24.3181 31.9999C17.2885 31.9612 10.2582 31.9612 3.22717 31.9999C1.5499 32.01 0.734641 31.0956 0.750219 29.765C0.795915 25.437 0.775144 21.0998 0.776183 16.7672C0.776183 12.5749 0.776183 8.38253 0.776183 4.19021C0.779298 3.08887 1.56341 2.38902 2.93326 2.33561ZM13.7757 22.6026C13.9056 22.8015 13.9897 22.9295 14.0717 23.0575C14.3958 23.5603 14.7011 24.0705 15.0469 24.5631C15.4416 25.1212 15.8632 25.6681 16.2932 26.2041C16.4875 26.4719 16.7207 26.7159 16.9869 26.9297C17.4989 27.298 18.1958 27.2336 18.6767 26.8192C19.1959 26.3689 19.2863 25.8201 18.8667 25.2878C17.7513 23.8722 16.6245 22.4642 15.4862 21.0639C15.3128 20.8502 15.2785 20.6955 15.4655 20.4663C16.0626 19.736 16.638 18.9929 17.203 18.2433C17.2925 18.1056 17.4232 17.9924 17.5805 17.9162C17.7379 17.84 17.916 17.8037 18.0951 17.8114C19.1139 17.805 20.0257 17.5186 20.7122 16.816C21.083 16.4366 21.4153 16.0277 21.758 15.6263C22.5058 14.7508 23.2501 13.8723 23.9909 12.9908C24.1706 12.7753 24.1498 12.569 23.8933 12.3931C23.6368 12.2173 23.4145 12.209 23.2131 12.4254C23.0116 12.6418 22.8257 12.8941 22.6304 13.128C22.0675 13.8048 21.515 14.489 20.9272 15.1493C20.8296 15.2607 20.5814 15.2671 20.4027 15.3215C20.4027 15.1575 20.3435 14.9531 20.4287 14.8371C20.7683 14.3601 21.1474 13.9079 21.5233 13.4475C21.8816 13.0175 22.269 12.6049 22.618 12.1694C22.8028 11.9392 22.8423 11.6804 22.538 11.4824C22.2337 11.2844 21.9917 11.4069 21.7965 11.6454C21.756 11.6951 21.7196 11.7467 21.6791 11.7964C20.9895 12.6381 20.3124 13.488 19.602 14.3131C19.4982 14.4384 19.2157 14.4466 19.0163 14.5093C19.0267 14.3306 19.0048 14.1455 19.0568 13.9779C19.0952 13.8536 19.2292 13.7523 19.3206 13.6418C19.9728 12.8527 20.6208 12.0607 21.2803 11.2771C21.4652 11.0561 21.4974 10.8609 21.2429 10.6794C21.0041 10.5091 20.76 10.5054 20.5679 10.7356C19.8305 11.6196 19.1004 12.5092 18.3672 13.395C18.2135 13.5792 18.0556 13.8159 17.7492 13.6326C17.4429 13.4494 17.6215 13.2597 17.7877 13.0617C18.5091 12.2022 19.2222 11.3391 19.9271 10.4723C20.2189 10.1113 20.1441 9.85252 19.7453 9.69321C19.4078 9.55877 19.2323 9.75031 19.063 9.95473C18.2259 10.9677 17.4013 11.9806 16.5497 12.9834C15.6981 13.9862 15.2744 15.0618 15.7396 16.3243C15.7754 16.4298 15.7866 16.5407 15.7727 16.6502C15.7588 16.7598 15.72 16.8656 15.6586 16.9615C15.0978 17.6567 14.484 18.3188 13.8547 19.0334C13.5057 18.6117 13.189 18.1927 12.8307 17.8059C12.3872 17.328 12.0206 16.8611 12.5544 16.2552C12.5741 16.2331 12.57 16.1963 12.5793 16.1631C13.2835 13.7836 11.2572 10.813 8.50924 10.1951C6.65854 9.77885 5.12668 10.5634 4.80784 12.2209C4.43085 14.1842 5.23884 15.8113 6.95141 17.0637C7.88611 17.747 8.94959 18.1789 10.2187 18.0555C10.3402 18.0435 10.5303 18.1678 10.6082 18.2746C11.2053 19.0776 11.7838 19.8916 12.3643 20.6965C12.004 21.1265 11.6737 21.5363 11.3258 21.9332C10.3444 23.0511 9.34216 24.1552 8.37319 25.2814C7.92454 25.8035 8.03255 26.4002 8.5809 26.8468C9.09187 27.2566 9.8687 27.3174 10.3101 26.88C10.8761 26.3192 11.359 25.6893 11.8534 25.0733C12.4931 24.2767 13.1048 23.4682 13.7757 22.6026Z" fill="white"/>
<path d="M22.943 2.20392C22.943 2.55661 22.9545 2.90929 22.943 3.26106C22.9181 3.8679 22.4539 4.30438 21.8318 4.32188C21.5168 4.33067 21.2104 4.22946 20.9787 4.04002C20.747 3.85058 20.6084 3.58806 20.5928 3.30894C20.5585 2.56029 20.5596 1.80796 20.5928 1.05838C20.6208 0.413787 21.1557 -0.0134875 21.8266 0.000325277C22.4778 0.0150589 22.9212 0.444175 22.9441 1.0989C22.9524 1.46908 22.942 1.8365 22.943 2.20392Z" fill="white"/>
<path d="M6.8704 2.19742C6.8704 2.53353 6.87871 2.86964 6.8704 3.21036C6.85275 3.83469 6.34178 4.31538 5.69684 4.32459C5.0519 4.33379 4.51704 3.84482 4.50562 3.22601C4.49316 2.52432 4.49212 1.82171 4.50562 1.1191C4.51912 0.474506 5.0249 0.0140809 5.67503 0.00763494C6.32516 0.00118898 6.83821 0.463456 6.86729 1.09884C6.87975 1.46442 6.8704 1.83184 6.8704 2.19742Z" fill="white"/>
<path d="M12.571 2.1635C12.571 1.78043 12.5586 1.39735 12.571 1.01428C12.5757 0.743891 12.7004 0.486046 12.9182 0.296736C13.136 0.107427 13.4292 0.00194068 13.7342 0.00318471C14.0299 0.0047281 14.3134 0.10788 14.5251 0.290949C14.7368 0.474018 14.8602 0.722739 14.8693 0.984812C14.8922 1.76569 14.8922 2.54658 14.8693 3.32746C14.867 3.59781 14.7436 3.85627 14.5264 4.04598C14.3091 4.23568 14.0157 4.34109 13.7108 4.33901C13.4059 4.33694 13.1144 4.22755 12.9005 4.03491C12.6865 3.84227 12.5676 3.58216 12.57 3.3118C12.5586 2.92965 12.571 2.54565 12.571 2.1635Z" fill="white"/>
</svg>
