<svg width="25" height="35" viewBox="0 0 23 32" fill="none" xmlns="http://www.w3.org/2000/svg">
<mask id="path-1-inside-1_1237_3460" fill="white">
<path d="M11.5 2.28571C12.6302 2.28571 13.735 2.62085 14.6747 3.24875C15.6144 3.87664 16.3468 4.76909 16.7793 5.81324C17.2118 6.85739 17.325 8.00634 17.1045 9.1148C16.884 10.2233 16.3398 11.2415 15.5406 12.0406C14.7415 12.8398 13.7233 13.384 12.6148 13.6045C11.5063 13.825 10.3574 13.7118 9.31324 13.2793C8.26909 12.8468 7.37664 12.1144 6.74875 11.1747C6.12086 10.235 5.78572 9.13018 5.78572 8C5.78572 6.48448 6.38776 5.03103 7.45939 3.95939C8.53103 2.88775 9.98448 2.28571 11.5 2.28571ZM11.5 0C9.91775 0 8.37104 0.469192 7.05544 1.34824C5.73985 2.22729 4.71447 3.47672 4.10897 4.93853C3.50347 6.40034 3.34504 8.00887 3.65372 9.56072C3.9624 11.1126 4.72433 12.538 5.84315 13.6569C6.96197 14.7757 8.38743 15.5376 9.93928 15.8463C11.4911 16.155 13.0997 15.9965 14.5615 15.391C16.0233 14.7855 17.2727 13.7602 18.1518 12.4446C19.0308 11.129 19.5 9.58225 19.5 8C19.5 5.87827 18.6571 3.84344 17.1569 2.34315C15.6566 0.842855 13.6217 0 11.5 0Z"/>
</mask>
<path d="M5.78572 8H1.78572H5.78572ZM11.5 6.28571C11.8391 6.28571 12.1705 6.38626 12.4524 6.57462L16.897 -0.0771333C15.2995 -1.14455 13.4213 -1.71429 11.5 -1.71429V6.28571ZM12.4524 6.57462C12.7343 6.76299 12.954 7.03073 13.0838 7.34397L20.4748 4.2825C19.7396 2.50745 18.4945 0.990285 16.897 -0.0771333L12.4524 6.57462ZM13.0838 7.34397C13.2135 7.65722 13.2475 8.0019 13.1814 8.33444L21.0276 9.89516C21.4025 8.01078 21.2101 6.05756 20.4748 4.2825L13.0838 7.34397ZM13.1814 8.33444C13.1152 8.66698 12.9519 8.97244 12.7122 9.21218L18.369 14.869C19.7276 13.5105 20.6528 11.7796 21.0276 9.89516L13.1814 8.33444ZM12.7122 9.21218C12.4724 9.45193 12.167 9.6152 11.8344 9.68135L13.3952 17.5276C15.2796 17.1528 17.0105 16.2276 18.369 14.869L12.7122 9.21218ZM11.8344 9.68135C11.5019 9.74749 11.1572 9.71354 10.844 9.58379L7.78251 16.9748C9.55756 17.7101 11.5108 17.9025 13.3952 17.5276L11.8344 9.68135ZM10.844 9.58379C10.5307 9.45404 10.263 9.23432 10.0746 8.95241L3.42287 13.397C4.49029 14.9945 6.00745 16.2396 7.78251 16.9748L10.844 9.58379ZM10.0746 8.95241C9.88626 8.67049 9.78572 8.33905 9.78572 8H1.78572C1.78572 9.9213 2.35545 11.7995 3.42287 13.397L10.0746 8.95241ZM9.78572 8C9.78572 7.54534 9.96633 7.10931 10.2878 6.78782L4.63097 1.13096C2.80918 2.95274 1.78572 5.42361 1.78572 8H9.78572ZM10.2878 6.78782C10.6093 6.46633 11.0453 6.28571 11.5 6.28571V-1.71429C8.92362 -1.71429 6.45275 -0.690819 4.63097 1.13096L10.2878 6.78782ZM11.5 -4C9.12663 -4 6.80655 -3.29621 4.83316 -1.97764L9.27772 4.67412C9.93552 4.2346 10.7089 4 11.5 4V-4ZM4.83316 -1.97764C2.85977 -0.659059 1.3217 1.21509 0.413449 3.4078L7.80449 6.46927C8.10724 5.73836 8.61993 5.11365 9.27772 4.67412L4.83316 -1.97764ZM0.413449 3.4078C-0.494802 5.60051 -0.732442 8.01331 -0.26942 10.3411L7.57686 8.78036C7.42252 8.00444 7.50173 7.20017 7.80449 6.46927L0.413449 3.4078ZM-0.26942 10.3411C0.193603 12.6689 1.33649 14.8071 3.01472 16.4853L8.67158 10.8284C8.11217 10.269 7.7312 9.55628 7.57686 8.78036L-0.26942 10.3411ZM3.01472 16.4853C4.69295 18.1635 6.83115 19.3064 9.15892 19.7694L10.7196 11.9231C9.94372 11.7688 9.23099 11.3878 8.67158 10.8284L3.01472 16.4853ZM9.15892 19.7694C11.4867 20.2324 13.8995 19.9948 16.0922 19.0866L13.0307 11.6955C12.2998 11.9983 11.4956 12.0775 10.7196 11.9231L9.15892 19.7694ZM16.0922 19.0866C18.2849 18.1783 20.1591 16.6402 21.4776 14.6668L14.8259 10.2223C14.3864 10.8801 13.7616 11.3928 13.0307 11.6955L16.0922 19.0866ZM21.4776 14.6668C22.7962 12.6935 23.5 10.3734 23.5 8H15.5C15.5 8.79113 15.2654 9.56449 14.8259 10.2223L21.4776 14.6668ZM23.5 8C23.5 4.8174 22.2357 1.76515 19.9853 -0.485281L14.3284 5.17157C15.0786 5.92172 15.5 6.93913 15.5 8H23.5ZM19.9853 -0.485281C17.7348 -2.73572 14.6826 -4 11.5 -4V4C12.5609 4 13.5783 4.42143 14.3284 5.17157L19.9853 -0.485281Z" fill="white" mask="url(#path-1-inside-1_1237_3460)"/>
<mask id="path-3-inside-2_1237_3460" fill="white">
<path d="M22.9287 31.9999H20.643V26.2856C20.643 24.7701 20.0409 23.3167 18.9693 22.245C17.8976 21.1734 16.4442 20.5714 14.9287 20.5714H8.07153C6.55601 20.5714 5.10256 21.1734 4.03092 22.245C2.95929 23.3167 2.35725 24.7701 2.35725 26.2856V31.9999H0.0715332V26.2856C0.0715332 24.1639 0.914388 22.1291 2.41468 20.6288C3.91497 19.1285 5.9498 18.2856 8.07153 18.2856H14.9287C17.0504 18.2856 19.0852 19.1285 20.5855 20.6288C22.0858 22.1291 22.9287 24.1639 22.9287 26.2856V31.9999Z"/>
</mask>
<path d="M22.9287 31.9999V40.9999H31.9287V31.9999H22.9287ZM20.643 31.9999H11.643V40.9999H20.643V31.9999ZM2.35725 26.2856H-6.64275H2.35725ZM2.35725 31.9999V40.9999H11.3572V31.9999H2.35725ZM0.0715332 31.9999H-8.92847V40.9999H0.0715332V31.9999ZM8.07153 18.2856V9.28564V18.2856ZM22.9287 22.9999H20.643V40.9999H22.9287V22.9999ZM29.643 31.9999V26.2856H11.643V31.9999H29.643ZM29.643 26.2856C29.643 22.3832 28.0927 18.6405 25.3332 15.8811L12.6053 28.609C11.9891 27.9928 11.643 27.1571 11.643 26.2856H29.643ZM25.3332 15.8811C22.5738 13.1216 18.8311 11.5714 14.9287 11.5714V29.5714C14.0572 29.5714 13.2215 29.2252 12.6053 28.609L25.3332 15.8811ZM14.9287 11.5714H8.07153V29.5714H14.9287V11.5714ZM8.07153 11.5714C4.16906 11.5714 0.426425 13.1216 -2.33304 15.8811L10.3949 28.609C9.77869 29.2252 8.94296 29.5714 8.07153 29.5714V11.5714ZM-2.33304 15.8811C-5.0925 18.6405 -6.64275 22.3832 -6.64275 26.2856H11.3572C11.3572 27.1571 11.0111 27.9928 10.3949 28.609L-2.33304 15.8811ZM-6.64275 26.2856V31.9999H11.3572V26.2856H-6.64275ZM2.35725 22.9999H0.0715332V40.9999H2.35725V22.9999ZM9.07153 31.9999V26.2856H-8.92847V31.9999H9.07153ZM9.07153 26.2856C9.07153 26.5509 8.96618 26.8052 8.77864 26.9928L-3.94928 14.2648C-7.1374 17.4529 -8.92847 21.777 -8.92847 26.2856H9.07153ZM8.77864 26.9928C8.5911 27.1803 8.33675 27.2856 8.07153 27.2856V9.28564C3.56285 9.28564 -0.761165 11.0767 -3.94928 14.2648L8.77864 26.9928ZM8.07153 27.2856H14.9287V9.28564H8.07153V27.2856ZM14.9287 27.2856C14.6635 27.2856 14.4091 27.1803 14.2216 26.9928L26.9495 14.2648C23.7614 11.0767 19.4374 9.28564 14.9287 9.28564V27.2856ZM14.2216 26.9928C14.034 26.8052 13.9287 26.5509 13.9287 26.2856H31.9287C31.9287 21.777 30.1376 17.4529 26.9495 14.2648L14.2216 26.9928ZM13.9287 26.2856V31.9999H31.9287V26.2856H13.9287Z" fill="white" mask="url(#path-3-inside-2_1237_3460)"/>
</svg>
