<svg width="35" height="35" viewBox="0 0 35 35" fill="none" xmlns="http://www.w3.org/2000/svg">
<path d="M12.7528 24.5023C15.7124 24.5023 18.4101 23.3943 20.48 21.5829L22.7245 26.2834C22.7245 26.2834 23.1861 26.6594 23.8207 27.2839C24.4704 27.8933 25.3248 28.7176 26.1441 29.5787L28.4238 31.9155L29.4377 33L32.9983 29.4394L31.9139 28.4255L29.5771 26.1457C28.7908 25.3926 28.0256 24.6179 27.2822 23.8224C26.6578 23.1878 26.2817 22.7262 26.2817 22.7262L21.5813 20.4817C23.4638 18.3464 24.503 15.5978 24.5039 12.7511C24.5039 6.2729 19.231 1 12.7528 1C6.27458 1 1.00168 6.2729 1.00168 12.7511C1.00168 19.2294 6.27458 24.5023 12.7528 24.5023Z" stroke="white" stroke-width="2"/>
</svg>
